<mxfile host="Electron" agent="Mozilla/5.0 (Windows NT 10.0; Win64; x64) AppleWebKit/537.36 (KHTML, like Gecko) draw.io/25.0.2 Chrome/128.0.6613.186 Electron/32.2.5 Safari/537.36" version="25.0.2">
  <diagram name="Seite-1" id="jk51XyNueaPlg8szj3Q_">
    <mxGraphModel dx="1204" dy="825" grid="1" gridSize="10" guides="1" tooltips="1" connect="1" arrows="1" fold="1" page="1" pageScale="1" pageWidth="827" pageHeight="1169" math="0" shadow="0">
      <root>
        <mxCell id="0" />
        <mxCell id="1" parent="0" />
        <mxCell id="iUI2MCQNHXwOpUdywdGW-42" value="" style="group;fillColor=#dae8fc;strokeColor=#6c8ebf;" vertex="1" connectable="0" parent="1">
          <mxGeometry x="334" y="380" width="160" height="36" as="geometry" />
        </mxCell>
        <mxCell id="iUI2MCQNHXwOpUdywdGW-43" value="" style="rounded=1;whiteSpace=wrap;html=1;strokeWidth=4;fillColor=#dae8fc;strokeColor=#6c8ebf;" vertex="1" parent="iUI2MCQNHXwOpUdywdGW-42">
          <mxGeometry width="160" height="36" as="geometry" />
        </mxCell>
        <mxCell id="iUI2MCQNHXwOpUdywdGW-44" value="" style="ellipse;whiteSpace=wrap;html=1;aspect=fixed;strokeWidth=3;fillColor=#dae8fc;strokeColor=#6c8ebf;" vertex="1" parent="iUI2MCQNHXwOpUdywdGW-42">
          <mxGeometry x="20" y="12" width="12" height="12" as="geometry" />
        </mxCell>
        <mxCell id="iUI2MCQNHXwOpUdywdGW-45" value="" style="rounded=1;whiteSpace=wrap;html=1;strokeWidth=3;fillColor=#dae8fc;strokeColor=#6c8ebf;" vertex="1" parent="iUI2MCQNHXwOpUdywdGW-42">
          <mxGeometry x="54" y="6" width="28" height="10" as="geometry" />
        </mxCell>
        <mxCell id="iUI2MCQNHXwOpUdywdGW-46" value="" style="rounded=1;whiteSpace=wrap;html=1;strokeWidth=3;fillColor=#dae8fc;strokeColor=#6c8ebf;" vertex="1" parent="iUI2MCQNHXwOpUdywdGW-42">
          <mxGeometry x="88" y="6" width="28" height="10" as="geometry" />
        </mxCell>
        <mxCell id="iUI2MCQNHXwOpUdywdGW-47" value="" style="rounded=1;whiteSpace=wrap;html=1;strokeWidth=3;fillColor=#dae8fc;strokeColor=#6c8ebf;" vertex="1" parent="iUI2MCQNHXwOpUdywdGW-42">
          <mxGeometry x="122" y="6" width="28" height="10" as="geometry" />
        </mxCell>
        <mxCell id="iUI2MCQNHXwOpUdywdGW-48" value="" style="rounded=1;whiteSpace=wrap;html=1;strokeWidth=3;fillColor=#dae8fc;strokeColor=#6c8ebf;" vertex="1" parent="iUI2MCQNHXwOpUdywdGW-42">
          <mxGeometry x="54" y="20" width="28" height="10" as="geometry" />
        </mxCell>
        <mxCell id="iUI2MCQNHXwOpUdywdGW-49" value="" style="rounded=1;whiteSpace=wrap;html=1;strokeWidth=3;fillColor=#dae8fc;strokeColor=#6c8ebf;" vertex="1" parent="iUI2MCQNHXwOpUdywdGW-42">
          <mxGeometry x="88" y="20" width="28" height="10" as="geometry" />
        </mxCell>
        <mxCell id="iUI2MCQNHXwOpUdywdGW-50" value="" style="rounded=1;whiteSpace=wrap;html=1;strokeWidth=3;fillColor=#dae8fc;strokeColor=#6c8ebf;" vertex="1" parent="iUI2MCQNHXwOpUdywdGW-42">
          <mxGeometry x="122" y="20" width="28" height="10" as="geometry" />
        </mxCell>
        <mxCell id="iUI2MCQNHXwOpUdywdGW-54" value="Apache" style="rounded=1;whiteSpace=wrap;html=1;fillColor=#1ba1e2;fontColor=#ffffff;strokeColor=#006EAF;" vertex="1" parent="1">
          <mxGeometry x="376" y="322.5" width="120" height="30" as="geometry" />
        </mxCell>
        <mxCell id="iUI2MCQNHXwOpUdywdGW-55" value="" style="shape=image;html=1;verticalLabelPosition=bottom;verticalAlign=top;imageAspect=0;image=img/clipart/Gear_128x128.png;fillColor=#1ba1e2;fontColor=#ffffff;strokeColor=#006EAF;" vertex="1" parent="1">
          <mxGeometry x="384" y="328.75" width="16" height="17.5" as="geometry" />
        </mxCell>
        <mxCell id="iUI2MCQNHXwOpUdywdGW-56" value="Database" style="rounded=1;whiteSpace=wrap;html=1;fillColor=#1ba1e2;fontColor=#ffffff;strokeColor=#006EAF;" vertex="1" parent="1">
          <mxGeometry x="530" y="356" width="120" height="30" as="geometry" />
        </mxCell>
        <mxCell id="iUI2MCQNHXwOpUdywdGW-57" value="" style="shape=image;html=1;verticalLabelPosition=bottom;verticalAlign=top;imageAspect=0;image=img/clipart/Gear_128x128.png;fillColor=#1ba1e2;fontColor=#ffffff;strokeColor=#006EAF;" vertex="1" parent="1">
          <mxGeometry x="538" y="362.25" width="16" height="17.5" as="geometry" />
        </mxCell>
        <mxCell id="iUI2MCQNHXwOpUdywdGW-58" value="&amp;nbsp; &amp;nbsp; &amp;nbsp;Memory Usage" style="rounded=1;whiteSpace=wrap;html=1;fillColor=#1ba1e2;fontColor=#ffffff;strokeColor=#006EAF;align=center;" vertex="1" parent="1">
          <mxGeometry x="450" y="450" width="120" height="30" as="geometry" />
        </mxCell>
        <mxCell id="iUI2MCQNHXwOpUdywdGW-59" value="" style="shape=image;html=1;verticalLabelPosition=bottom;verticalAlign=top;imageAspect=0;image=img/clipart/Gear_128x128.png;fillColor=#1ba1e2;fontColor=#ffffff;strokeColor=#006EAF;" vertex="1" parent="1">
          <mxGeometry x="458" y="456.25" width="16" height="17.5" as="geometry" />
        </mxCell>
        <mxCell id="iUI2MCQNHXwOpUdywdGW-60" value="CPU Load" style="rounded=1;whiteSpace=wrap;html=1;fillColor=#1ba1e2;fontColor=#ffffff;strokeColor=#006EAF;" vertex="1" parent="1">
          <mxGeometry x="280" y="450" width="120" height="30" as="geometry" />
        </mxCell>
        <mxCell id="iUI2MCQNHXwOpUdywdGW-61" value="" style="shape=image;html=1;verticalLabelPosition=bottom;verticalAlign=top;imageAspect=0;image=img/clipart/Gear_128x128.png;fillColor=#1ba1e2;fontColor=#ffffff;strokeColor=#006EAF;" vertex="1" parent="1">
          <mxGeometry x="288" y="456.25" width="16" height="17.5" as="geometry" />
        </mxCell>
        <mxCell id="iUI2MCQNHXwOpUdywdGW-62" value="Disk Usage" style="rounded=1;whiteSpace=wrap;html=1;fillColor=#1ba1e2;fontColor=#ffffff;strokeColor=#006EAF;" vertex="1" parent="1">
          <mxGeometry x="180" y="346.25" width="120" height="30" as="geometry" />
        </mxCell>
        <mxCell id="iUI2MCQNHXwOpUdywdGW-63" value="" style="shape=image;html=1;verticalLabelPosition=bottom;verticalAlign=top;imageAspect=0;image=img/clipart/Gear_128x128.png;fillColor=#1ba1e2;fontColor=#ffffff;strokeColor=#006EAF;" vertex="1" parent="1">
          <mxGeometry x="188" y="352.5" width="16" height="17.5" as="geometry" />
        </mxCell>
        <mxCell id="iUI2MCQNHXwOpUdywdGW-64" style="edgeStyle=orthogonalEdgeStyle;rounded=0;orthogonalLoop=1;jettySize=auto;html=1;curved=1;strokeColor=#030303;endArrow=none;endFill=0;" edge="1" parent="1" source="iUI2MCQNHXwOpUdywdGW-47" target="iUI2MCQNHXwOpUdywdGW-56">
          <mxGeometry relative="1" as="geometry" />
        </mxCell>
        <mxCell id="iUI2MCQNHXwOpUdywdGW-65" style="edgeStyle=orthogonalEdgeStyle;rounded=0;orthogonalLoop=1;jettySize=auto;html=1;curved=1;strokeColor=#030303;endArrow=none;endFill=0;" edge="1" parent="1" source="iUI2MCQNHXwOpUdywdGW-43" target="iUI2MCQNHXwOpUdywdGW-54">
          <mxGeometry relative="1" as="geometry" />
        </mxCell>
        <mxCell id="iUI2MCQNHXwOpUdywdGW-66" style="edgeStyle=orthogonalEdgeStyle;rounded=0;orthogonalLoop=1;jettySize=auto;html=1;entryX=0.5;entryY=1;entryDx=0;entryDy=0;curved=1;strokeColor=#030303;endArrow=none;endFill=0;" edge="1" parent="1" source="iUI2MCQNHXwOpUdywdGW-43" target="iUI2MCQNHXwOpUdywdGW-62">
          <mxGeometry relative="1" as="geometry" />
        </mxCell>
        <mxCell id="iUI2MCQNHXwOpUdywdGW-67" style="edgeStyle=orthogonalEdgeStyle;rounded=0;orthogonalLoop=1;jettySize=auto;html=1;exitX=0.25;exitY=1;exitDx=0;exitDy=0;entryX=0.5;entryY=0;entryDx=0;entryDy=0;curved=1;strokeColor=#030303;endArrow=none;endFill=0;" edge="1" parent="1" source="iUI2MCQNHXwOpUdywdGW-43" target="iUI2MCQNHXwOpUdywdGW-60">
          <mxGeometry relative="1" as="geometry" />
        </mxCell>
        <mxCell id="iUI2MCQNHXwOpUdywdGW-68" style="edgeStyle=orthogonalEdgeStyle;rounded=0;orthogonalLoop=1;jettySize=auto;html=1;curved=1;strokeColor=#030303;endArrow=none;endFill=0;" edge="1" parent="1" source="iUI2MCQNHXwOpUdywdGW-49" target="iUI2MCQNHXwOpUdywdGW-58">
          <mxGeometry relative="1" as="geometry" />
        </mxCell>
      </root>
    </mxGraphModel>
  </diagram>
</mxfile>
